<?xml version="1.0" standalone="no"?>
<!DOCTYPE svg PUBLIC "-//W3C//DTD SVG 20010904//EN"
 "http://www.w3.org/TR/2001/REC-SVG-20010904/DTD/svg10.dtd">
<svg version="1.0" xmlns="http://www.w3.org/2000/svg"
 width="218.000000pt" height="225.000000pt" viewBox="0 0 218.000000 225.000000"
 preserveAspectRatio="xMidYMid meet">

<g transform="translate(0.000000,225.000000) scale(0.100000,-0.100000)"
fill="#000000" stroke="none">
<path d="M654 2208 c-57 -54 -130 -163 -157 -237 -27 -74 -29 -273 -3 -369
l17 -63 -25 -20 c-49 -39 -73 -188 -42 -262 22 -53 72 -97 111 -97 18 0 38 7
45 15 19 23 26 19 38 -22 13 -45 61 -289 68 -347 8 -57 24 -116 40 -148 43
-83 255 -275 289 -261 29 11 211 -59 257 -98 11 -11 27 -19 35 -19 7 0 13 -4
13 -9 0 -8 53 -23 90 -25 16 -1 94 17 124 29 17 8 17 6 2 -24 -9 -17 -25 -37
-36 -44 -11 -6 -20 -16 -20 -22 0 -5 -7 -23 -16 -40 -13 -25 -44 -123 -44
-140 0 -3 167 -5 370 -5 l370 0 0 169 0 170 -57 11 c-80 16 -153 50 -172 80
-9 14 -22 32 -30 39 -16 17 -120 33 -171 26 -32 -5 -38 -1 -69 41 -59 79 -53
197 17 347 92 193 106 231 110 298 3 52 -1 81 -19 130 -19 52 -23 80 -20 149
3 99 3 178 2 235 -1 22 -1 76 -1 120 -1 44 -7 102 -16 130 -23 78 -92 209
-136 260 l-40 45 -439 0 -439 0 -46 -42z m626 -190 c0 -6 7 -19 16 -29 10 -11
12 -19 5 -24 -6 -3 -11 1 -11 9 0 9 -7 16 -15 16 -8 0 -15 -4 -15 -10 0 -5 -5
-10 -10 -10 -7 0 -7 6 -2 18 5 9 7 23 5 30 -3 6 2 12 11 12 9 0 16 -5 16 -12z
m-77 -5 c-7 -2 -19 -2 -25 0 -7 3 -2 5 12 5 14 0 19 -2 13 -5z m163 -105 c4
-6 -2 -19 -14 -28 -12 -10 -18 -21 -14 -25 4 -4 1 -6 -6 -4 -8 3 -13 8 -12 13
1 5 -4 13 -12 17 -10 7 -9 9 5 9 10 0 20 7 23 15 7 18 20 19 30 3z m-106 -25
c0 -19 -13 -9 -16 12 -1 8 2 13 7 9 5 -3 9 -12 9 -21z m25 -33 c3 -5 1 -10 -4
-10 -6 0 -11 5 -11 10 0 6 2 10 4 10 3 0 8 -4 11 -10z m105 -31 c0 -14 -17
-10 -23 5 -4 10 -1 13 9 9 7 -3 14 -9 14 -14z m-13 -33 c0 -7 -11 -17 -24 -23
-19 -9 -23 -8 -23 4 0 10 -6 12 -20 8 -12 -4 -20 -2 -20 5 0 6 4 8 10 5 5 -3
15 3 21 14 10 15 17 17 34 9 12 -5 22 -15 22 -22z m-79 -43 c-6 -7 -12 -13
-13 -13 -2 0 -5 6 -8 13 -3 7 3 13 14 13 13 0 15 -3 7 -13z m-233 -173 c3 -5
2 -10 -4 -10 -5 0 -13 5 -16 10 -3 6 -2 10 4 10 5 0 13 -4 16 -10z m353 -46
c17 -12 20 -19 12 -33 -5 -10 -7 -21 -4 -23 2 -3 7 -18 9 -34 14 -78 18 -94
27 -94 5 0 6 -4 3 -10 -3 -5 -1 -10 5 -10 16 0 44 -29 47 -49 3 -24 -28 -46
-67 -49 -19 -2 -53 -8 -75 -14 -60 -17 -73 -17 -68 1 2 9 27 29 55 44 38 21
49 33 45 47 -3 12 2 20 15 23 11 3 17 10 14 16 -4 6 -14 7 -23 4 -9 -4 -14 -2
-11 3 3 5 -3 17 -13 26 -15 14 -19 15 -30 2 -10 -13 -14 -13 -28 0 -11 10 -26
13 -41 9 l-25 -7 25 -7 c24 -7 24 -7 3 -8 -13 -1 -23 -4 -24 -8 -1 -18 -10
-57 -12 -58 -1 0 -21 -14 -45 -30 -24 -15 -56 -28 -72 -28 -16 0 -27 -4 -25
-8 8 -12 -47 -21 -58 -10 -16 16 -27 13 -21 -4 7 -17 -11 -21 -21 -5 -4 6 -12
10 -18 9 -27 -3 -37 3 -52 30 -12 24 -13 32 -2 43 20 20 27 47 15 54 -6 4 -8
3 -4 -4 3 -6 2 -13 -4 -17 -5 -3 -10 1 -10 9 0 8 9 20 20 26 15 8 20 8 20 -2
0 -6 7 -3 16 8 8 10 12 13 9 6 -6 -10 -3 -11 11 -3 36 19 84 31 84 20 0 -6 5
-7 10 -4 6 4 8 11 5 16 -3 5 1 6 9 3 9 -4 16 -1 16 6 0 7 7 10 15 6 9 -3 15 0
15 8 0 19 30 29 47 15 7 -7 17 -9 20 -5 4 4 1 11 -7 17 -13 8 -13 10 0 19 20
13 25 13 40 -5 6 -8 8 -19 4 -26 -4 -7 -2 -10 7 -7 8 3 13 14 11 26 -2 12 1
30 7 39 9 16 10 16 11 -4 0 -12 4 -24 9 -28 6 -3 8 4 6 16 -3 15 0 19 10 15 9
-3 12 1 10 15 -2 11 -1 17 4 15 4 -3 13 -1 21 5 20 12 22 11 48 -7z m-36 -516
c16 16 25 15 25 -3 0 -9 -6 -14 -13 -11 -8 3 -16 1 -20 -5 -4 -6 -11 -6 -20 2
-7 6 -11 16 -8 21 4 6 10 5 15 -3 6 -11 11 -11 21 -1z m-60 -20 c-7 -7 -12 -8
-12 -2 0 14 12 26 19 19 2 -3 -1 -11 -7 -17z m38 -118 c5 0 16 -7 25 -16 18
-18 116 -23 169 -9 27 7 28 7 15 -15 -8 -12 -20 -32 -26 -44 -7 -11 -13 -17
-13 -13 0 5 -5 5 -11 2 -7 -5 -5 -14 5 -29 18 -28 5 -59 -16 -37 -10 11 -10
14 -1 18 10 3 10 10 2 24 -5 11 -7 24 -4 29 3 6 -1 7 -10 4 -9 -4 -14 -13 -11
-20 3 -7 1 -16 -4 -19 -6 -4 -10 -2 -10 3 0 15 -42 22 -57 10 -10 -8 -13 -6
-13 7 0 17 -43 65 -58 65 -4 0 -13 4 -20 8 -17 11 -4 45 15 38 8 -3 18 -6 23
-6z"/>
<path d="M1335 1790 c-3 -5 -2 -10 4 -10 5 0 13 5 16 10 3 6 2 10 -4 10 -5 0
-13 -4 -16 -10z"/>
<path d="M1370 1520 c-9 -6 -10 -10 -3 -10 6 0 15 5 18 10 8 12 4 12 -15 0z"/>
<path d="M1247 1459 c7 -7 15 -10 18 -7 3 3 -2 9 -12 12 -14 6 -15 5 -6 -5z"/>
<path d="M1316 1442 c-2 -4 2 -16 10 -27 12 -16 14 -17 14 -2 0 9 -5 17 -11
17 -5 0 -7 5 -4 10 3 6 4 10 1 10 -3 0 -7 -3 -10 -8z"/>
<path d="M590 759 c-134 -126 -136 -127 -349 -170 -58 -12 -134 -32 -170 -44
l-66 -22 -3 -262 -2 -261 201 2 202 3 19 75 c10 41 19 91 19 110 1 19 4 40 8
45 11 14 48 124 56 165 16 81 80 222 121 266 36 40 42 52 47 104 3 33 2 60 -1
60 -4 -1 -41 -33 -82 -71z"/>
<path d="M848 302 c-36 -20 -79 -47 -95 -59 -28 -23 -28 -23 -6 -29 24 -7 37
-40 65 -159 l13 -55 148 0 c81 0 153 4 160 9 7 6 30 25 52 44 22 18 48 37 58
40 18 7 17 8 -2 35 -11 16 -39 47 -63 70 -31 31 -45 38 -55 31 -20 -17 -85 8
-78 30 4 12 -3 21 -20 29 -34 16 -35 15 -30 -8 4 -23 -15 -26 -64 -9 -35 12
-38 21 -16 39 16 13 20 30 8 29 -5 0 -38 -17 -75 -37z"/>
</g>
</svg>
